# xmcd
#
# Track frame offsets:
#	150
#	30585
#	75052
#	118982
#	190997
#	220329
#	248094
#	283631
#	319538
#
# Disc length: 4618 seconds
#
# Revision: 1
# Processed by: cddbd v1.5.2PL0 Copyright (c) Steve Scherf et al.
# Submitted via: audiograbber 1.83.01
#
DISCID=74120809
DTITLE=Grateful Dead - 95-07-06 Riverport Amphitheatre, Maryland Heights MO
DYEAR=1900
DGENRE=
TTITLE0=Samba In The Rain
TTITLE1=Truckin'
TTITLE2=He's Gone
TTITLE3=Drums
TTITLE4=Space
TTITLE5=The Last Time
TTITLE6=Stella Blue
TTITLE7=Around and Around
TTITLE8=Liberty
EXTD=
EXTT0=
EXTT1=
EXTT2=
EXTT3=
EXTT4=
EXTT5=
EXTT6=
EXTT7=
EXTT8=
PLAYORDER=
